<?xml version="1.0" standalone="no"?>
<!DOCTYPE svg PUBLIC "-//W3C//DTD SVG 20010904//EN"
 "http://www.w3.org/TR/2001/REC-SVG-20010904/DTD/svg10.dtd">
<svg version="1.0" xmlns="http://www.w3.org/2000/svg"
 width="273.000000pt" height="273.000000pt" viewBox="0 0 273.000000 273.000000"
 preserveAspectRatio="xMidYMid meet">
<metadata>
Created by potrace 1.14, written by Peter Selinger 2001-2017
</metadata>
<g transform="translate(0.000000,273.000000) scale(0.100000,-0.100000)"
fill="#000000" stroke="none">
<path d="M1005 2700 c-55 -28 -78 -63 -83 -127 -6 -68 11 -108 61 -144 32 -23
50 -29 94 -29 l54 0 195 -395 196 -395 -29 -24 c-15 -14 -32 -25 -38 -25 -5 0
-120 78 -255 173 l-245 172 0 66 c0 56 -4 70 -29 103 -50 65 -135 84 -206 44
-106 -60 -105 -219 2 -279 50 -28 124 -24 169 9 18 13 34 19 42 14 8 -4 122
-84 255 -176 232 -163 240 -170 230 -193 -8 -17 -17 -22 -32 -19 -181 42
-1033 235 -1038 235 -5 0 -8 15 -8 33 0 76 -70 137 -159 137 -68 0 -113 -26
-140 -84 -26 -52 -26 -89 -2 -142 49 -108 208 -119 276 -18 l21 31 299 -69
c165 -37 402 -91 526 -119 l226 -52 6 -59 c3 -35 16 -80 30 -108 l25 -47 -422
-422 -422 -422 -37 16 c-79 33 -155 9 -204 -64 -65 -96 14 -241 131 -241 113
0 187 98 157 209 l-12 45 422 422 422 422 50 -26 c52 -27 137 -35 202 -20 l30
8 232 -421 233 -420 -28 -41 c-21 -33 -27 -53 -27 -98 0 -72 33 -120 99 -145
138 -53 264 91 196 224 -27 54 -74 81 -142 81 l-55 0 -219 393 c-120 215 -226
406 -236 423 l-18 30 33 32 33 32 263 -164 264 -163 1 -66 c2 -105 56 -162
156 -162 63 0 95 16 134 69 29 39 29 133 0 173 -56 75 -141 94 -220 48 l-42
-25 -264 164 c-240 149 -263 165 -258 187 7 39 6 152 -3 185 l-8 31 269 176
270 176 47 -25 c58 -29 86 -30 141 -5 85 39 119 145 72 225 -60 102 -216 102
-276 0 -19 -33 -22 -49 -18 -99 l5 -60 -261 -170 c-144 -94 -266 -171 -272
-172 -6 -2 -24 9 -40 23 l-30 26 202 404 202 404 55 0 c51 0 60 4 96 38 70 65
73 163 5 231 -32 31 -42 35 -98 39 -50 2 -70 -1 -96 -17 -46 -30 -72 -77 -72
-134 0 -52 10 -78 43 -115 l21 -23 -198 -397 -199 -398 -98 1 -98 0 -194 395
c-190 386 -194 395 -176 415 74 83 52 212 -44 255 -54 25 -92 25 -142 0z"/>
</g>
</svg>
