<?xml version="1.0" encoding="UTF-8"?><svg id="a" xmlns="http://www.w3.org/2000/svg" viewBox="0 0 64.5 65.31"><defs><style>.b{fill:#858586;}.c{fill:#4275ba;}</style></defs><g><rect class="b" x="46.76" y="30.14" width="1.08" height="33.36" transform="translate(-16.79 28.89) rotate(-29.08)"/><rect class="b" x="49.47" y="26.17" width="1.08" height="25.25" transform="translate(-9.29 60.92) rotate(-58.26)"/><rect class="b" x="37.21" y="24.64" width="25.53" height="1.08" transform="translate(-5.64 31.38) rotate(-33.11)"/><rect class="b" x="5.84" y="45.35" width="39.22" height="1.08" transform="translate(-24.96 31.3) rotate(-44.84)"/><rect class="b" x="30.55" y="17.49" width="31.57" height="1.08" transform="translate(9.47 51.4) rotate(-63.41)"/><rect class="b" x="31.76" y="2.4" width="1.08" height="31.19" transform="translate(-4.63 16.13) rotate(-26.22)"/><rect class="b" x="28.42" y="12.45" width="1.08" height="24.96" transform="translate(-8.06 34.41) rotate(-55.09)"/><rect class="b" x="21.11" y="9.88" width="1.08" height="36.32" transform="translate(-10.49 42.94) rotate(-77.18)"/></g><g><circle class="c" cx="39.11" cy="32.24" r="6.23"/><circle class="c" cx="11.43" cy="59.64" r="3.84"/><circle class="c" cx="3.84" cy="24.01" r="3.84"/><circle class="c" cx="18.62" cy="17.87" r="3.84"/><circle class="c" cx="25.3" cy="4" r="3.84"/><circle class="c" cx="53.37" cy="3.84" r="3.84"/><circle class="c" cx="60.66" cy="18.04" r="3.84"/><circle class="c" cx="60.66" cy="45.44" r="3.84"/><circle class="c" cx="55.41" cy="61.47" r="3.84"/></g></svg>